<?xml version="1.0" standalone="no"?>
<!DOCTYPE svg PUBLIC "-//W3C//DTD SVG 20010904//EN"
 "http://www.w3.org/TR/2001/REC-SVG-20010904/DTD/svg10.dtd">
<svg version="1.0" xmlns="http://www.w3.org/2000/svg"
 width="70.000000pt" height="80.000000pt" viewBox="0 0 70.000000 80.000000"
 preserveAspectRatio="xMidYMid meet">

<g transform="translate(0.000000,80.000000) scale(0.100000,-0.100000)"
fill="#000000" stroke="none">
<path d="M297 710 c-14 -11 -31 -36 -37 -55 -21 -64 -7 -88 100 -175 79 -64
101 -88 115 -124 14 -36 15 -51 6 -79 -35 -104 -170 -131 -246 -47 -11 13 -22
43 -26 73 l-6 52 -2 -45 c-2 -89 59 -144 161 -143 113 1 184 85 157 187 -15
54 -34 77 -131 153 -116 91 -131 124 -82 182 32 38 87 43 128 10 l26 -20 0 25
c0 25 -2 26 -69 26 -53 0 -74 -4 -94 -20z"/>
</g>
</svg>
